<?xml version="1.0" standalone="no"?>

<svg version="1.0" xmlns="http://www.w3.org/2000/svg"
     width="3000.000000pt" height="3000.000000pt" viewBox="0 0 3000.000000 3000.000000"
     preserveAspectRatio="xMidYMid meet">
    <metadata>
        Created by potrace 1.16, written by Peter Selinger 2001-2019
    </metadata>
    <g transform="translate(0.000000,3000.000000) scale(0.100000,-0.100000)"
       fill="#000000" stroke="none">
        <path d="M15358 25298 c-112 -146 -160 -233 -210 -381 -26 -79 -31 -111 -35
-228 -8 -214 24 -340 169 -659 135 -297 166 -422 134 -540 -8 -30 -12 -57 -9
-60 8 -8 218 214 267 284 99 138 139 266 118 384 -16 94 -65 185 -197 362
-122 165 -193 293 -221 400 -33 127 -17 325 38 464 10 27 17 51 14 53 -2 2
-33 -33 -68 -79z"/>
        <path d="M16621 24477 c-2 -158 -36 -272 -176 -572 -164 -355 -205 -490 -206
-690 -1 -168 33 -300 112 -432 48 -79 156 -191 241 -250 67 -46 149 -93 163
-93 3 0 -8 26 -24 58 -71 141 -104 287 -104 452 0 125 14 216 69 435 63 250
76 324 81 476 4 112 2 171 -12 250 -18 108 -74 293 -118 389 l-26 55 0 -78z"/>
        <path d="M14474 24404 c21 -54 89 -294 111 -390 49 -215 60 -315 60 -549 -1
-245 -15 -341 -76 -510 -52 -143 -157 -283 -250 -330 -129 -67 -339 132 -406
385 -37 139 -16 369 47 514 11 27 19 51 16 53 -2 3 -58 -49 -124 -114 -175
-173 -261 -313 -296 -485 -41 -197 -2 -391 150 -745 91 -211 109 -260 129
-343 27 -119 15 -248 -35 -365 -24 -56 -127 -215 -139 -215 -5 0 -11 62 -14
138 -8 205 -50 353 -146 516 -54 93 -176 227 -265 290 -61 43 -186 116 -199
116 -4 0 4 -22 17 -48 60 -119 88 -255 87 -428 0 -292 -88 -559 -299 -908
-164 -272 -231 -525 -219 -831 21 -520 272 -955 727 -1259 86 -58 276 -159
370 -197 90 -36 283 -100 288 -95 2 3 -10 22 -26 43 -157 197 -148 497 25 795
20 35 71 113 113 173 145 205 192 315 192 450 1 69 -5 97 -41 200 -76 214 -83
243 -83 345 -1 52 4 115 11 140 19 74 63 190 71 190 4 0 10 -26 13 -57 14
-157 85 -286 332 -598 219 -279 300 -444 325 -667 12 -106 0 -236 -34 -368
-13 -52 -23 -96 -21 -99 7 -7 84 60 149 130 79 86 156 234 186 359 54 225 28
513 -69 764 -17 44 -29 82 -27 84 11 10 248 -243 308 -328 124 -175 218 -397
253 -596 21 -121 19 -317 -4 -429 -49 -237 -169 -427 -366 -582 l-40 -31 77
13 c672 117 1190 442 1417 889 119 234 160 479 141 841 -19 366 -9 535 41 665
40 105 113 206 201 280 68 57 64 59 -58 35 -165 -32 -336 -102 -459 -190 -74
-52 -207 -191 -256 -265 -55 -83 -104 -185 -133 -280 -32 -99 -56 -209 -56
-251 0 -57 -18 -28 -39 61 -81 353 -43 568 152 863 218 327 257 557 148 856
-38 103 -92 205 -227 423 -223 361 -288 535 -287 773 1 116 17 208 57 328 13
40 23 73 21 75 -7 7 -161 -189 -230 -293 -255 -381 -390 -813 -356 -1142 6
-56 27 -164 47 -240 33 -128 35 -146 31 -248 -5 -128 -26 -195 -88 -277 -166
-223 -489 -250 -664 -56 -118 130 -145 353 -76 618 39 149 84 259 184 450 167
319 192 377 239 560 38 149 48 355 24 500 -41 253 -158 474 -355 671 -85 85
-227 200 -284 231 -17 9 -19 8 -13 -8z"/>
        <path d="M13338 24212 c6 -208 -33 -326 -213 -648 -101 -179 -142 -275 -157
-366 -31 -176 54 -345 259 -522 48 -42 88 -74 90 -73 1 2 -9 25 -22 52 -69
140 -57 265 64 635 33 102 69 221 80 265 63 253 49 470 -43 669 -60 132 -62
131 -58 -12z"/>
        <path d="M16790 22121 c0 -4 12 -51 26 -106 21 -79 27 -132 31 -256 l6 -157
61 -7 c103 -11 459 -73 696 -121 1213 -242 2387 -641 3633 -1234 l257 -123 0
-2938 0 -2939 255 0 255 0 0 3098 0 3098 -332 159 c-405 193 -666 313 -898
412 -1156 494 -2280 832 -3435 1033 -250 44 -555 88 -555 81z"/>
        <path d="M12660 22044 c-881 -168 -1442 -310 -2155 -548 -747 -250 -1284 -471
-2182 -901 l-333 -159 0 -3098 0 -3098 255 0 255 0 0 2938 0 2939 173 83
c1288 621 2532 1042 3815 1294 128 25 235 46 238 46 7 0 24 49 45 130 22 86
34 274 22 340 -10 53 -18 56 -133 34z"/>
        <path d="M17336 20948 c-81 -118 -102 -238 -90 -503 19 -413 6 -665 -44 -846
l-19 -66 109 -254 c181 -423 201 -496 201 -734 0 -139 -4 -173 -26 -256 -31
-119 -81 -225 -162 -344 l-62 -92 -7 -94 c-20 -254 -96 -462 -238 -651 -68
-90 -204 -219 -293 -280 -52 -35 -65 -49 -70 -78 -14 -71 -58 -198 -97 -274
-71 -143 -170 -269 -294 -377 -65 -55 -70 -63 -102 -151 -51 -141 -98 -301
-121 -415 -17 -84 -51 -332 -51 -380 0 -7 -30 -28 -67 -45 l-68 -33 -32 -155
c-36 -172 -113 -622 -113 -657 l0 -23 453 0 452 0 140 122 c655 570 1173 1231
1521 1943 325 666 490 1332 511 2065 5 197 -9 585 -24 650 -3 14 -3 22 1 19 4
-3 18 -69 31 -145 76 -425 85 -868 25 -1295 -129 -926 -565 -1858 -1250 -2674
-114 -135 -441 -490 -459 -497 -5 -2 -52 -45 -105 -95 l-97 -93 2056 0 2055 0
0 2778 0 2778 -47 23 c-109 53 -412 189 -623 278 -751 319 -1532 580 -2270
759 -268 65 -631 144 -664 144 -17 0 -33 -14 -60 -52z m1206 -1118 c74 -49
177 -165 212 -239 28 -60 31 -75 31 -161 0 -86 -3 -101 -32 -162 -19 -41 -38
-68 -47 -68 -24 0 -140 119 -166 170 -46 90 -62 152 -67 266 -6 113 2 224 16
224 4 0 28 -14 53 -30z m593 -392 c80 -280 13 -503 -182 -601 -89 -45 -90 -45
-107 14 -41 136 -4 311 95 456 36 52 157 183 170 183 5 0 15 -24 24 -52z
m-720 -163 c163 -104 257 -243 280 -414 l7 -54 -74 5 c-210 13 -348 175 -378
441 -6 48 -8 92 -5 97 7 12 96 -27 170 -75z m-96 -455 c229 -136 361 -331 361
-532 0 -57 -1 -58 -28 -58 -45 0 -141 28 -194 57 -142 77 -228 256 -228 475 0
63 4 98 11 98 6 0 41 -18 78 -40z m999 -93 c13 -300 -115 -501 -356 -557 -29
-7 -56 -9 -60 -5 -4 4 -7 50 -7 103 1 162 51 276 183 414 87 91 210 184 225
169 5 -5 12 -61 15 -124z m-944 -578 c181 -171 265 -368 236 -553 -6 -39 -13
-72 -15 -74 -2 -2 -33 6 -68 17 -155 52 -249 155 -292 322 -19 72 -16 269 6
346 14 53 18 51 133 -58z m944 -171 c-5 -108 -10 -147 -31 -206 -65 -187 -175
-291 -346 -328 -105 -22 -101 -24 -101 54 1 228 143 438 404 593 34 20 65 33
70 28 5 -4 6 -68 4 -141z m-1095 -377 c157 -164 229 -315 230 -481 1 -73 -17
-190 -29 -190 -14 0 -126 47 -156 66 -153 97 -231 301 -199 523 14 94 38 181
50 181 5 0 52 -45 104 -99z m1077 -255 c0 -37 -38 -197 -60 -256 -89 -228
-251 -350 -469 -350 -49 0 -92 3 -94 8 -10 16 25 142 57 207 64 128 185 240
345 317 103 50 221 90 221 74z m-1276 -223 c91 -105 153 -207 189 -311 26 -74
31 -102 31 -187 1 -105 -25 -225 -49 -225 -30 0 -145 69 -191 115 -118 117
-160 299 -118 502 17 85 51 183 63 183 5 0 39 -35 75 -77z m-227 -526 c56 -85
106 -187 133 -272 27 -85 37 -246 21 -326 -13 -60 -65 -179 -79 -179 -19 0
-100 60 -144 107 -113 122 -147 288 -98 479 27 103 96 254 118 254 4 0 26 -29
49 -63z m1353 -28 c0 -6 -14 -45 -31 -87 -42 -103 -128 -230 -192 -287 -101
-89 -250 -143 -357 -129 -73 9 -160 36 -160 48 0 6 16 45 35 85 69 144 226
268 415 330 118 38 290 62 290 40z m-1676 -471 c122 -219 161 -462 103 -641
-27 -85 -84 -187 -104 -187 -18 0 -132 109 -160 154 -98 155 -93 356 14 571
31 62 99 165 108 165 2 0 20 -28 39 -62z m1439 -235 c12 -7 8 -19 -27 -73
-164 -252 -410 -375 -631 -316 -56 15 -150 60 -160 77 -10 16 60 113 114 158
152 126 309 174 553 167 75 -2 143 -8 151 -13z m-1799 -312 c96 -254 100 -476
11 -657 -19 -39 -52 -91 -74 -115 l-39 -44 -47 49 c-108 112 -150 222 -143
369 3 53 14 119 26 157 27 83 103 214 166 286 57 66 59 65 100 -45z m2518 -29
c66 -29 105 -68 137 -135 106 -222 23 -531 -166 -623 -66 -33 -152 -38 -245
-15 l-58 14 0 85 0 84 36 -32 c20 -17 48 -36 62 -41 37 -14 113 -14 139 -1 33
18 73 75 89 128 14 46 14 46 -9 40 -114 -33 -204 -25 -272 22 -181 126 -118
427 103 489 58 16 128 10 184 -15z m610 -337 l-3 -356 25 -44 25 -45 -136 0
-136 0 21 23 c37 39 42 81 42 349 l0 256 -50 -13 -50 -13 0 41 0 42 98 57 c66
39 108 57 132 57 l35 1 -3 -355z m-1862 84 c73 -9 175 -29 218 -44 18 -6 -15
-52 -94 -131 -162 -163 -363 -243 -535 -214 -77 13 -183 62 -239 109 l-35 29
55 57 c75 78 158 130 254 161 132 42 236 51 376 33z m-432 -575 c99 -24 267
-87 277 -104 6 -9 -64 -69 -138 -119 -218 -148 -484 -173 -660 -61 -60 38
-147 118 -147 135 0 32 115 105 223 142 129 45 277 48 445 7z"/>
        <path d="M19482 15425 c-84 -37 -99 -234 -21 -289 43 -30 160 -11 175 29 10
25 -15 166 -36 211 -11 22 -32 46 -46 52 -31 15 -31 15 -72 -3z"/>
        <path d="M12185 20916 c-1084 -251 -2146 -623 -3162 -1108 l-23 -11 0 -2779 0
-2778 2056 0 2055 0 -88 82 c-930 859 -1565 1941 -1782 3033 -60 302 -75 458
-75 805 -1 202 4 354 12 425 18 150 62 415 73 440 8 17 9 17 5 -5 -15 -80 -28
-462 -23 -655 21 -738 193 -1420 526 -2090 215 -433 469 -816 796 -1200 154
-181 540 -569 720 -723 l130 -112 373 0 c354 0 372 1 372 18 0 31 -67 427
-100 593 -49 244 -41 226 -116 259 -35 16 -64 31 -64 34 0 24 -32 293 -39 331
-30 154 -85 344 -142 494 -26 70 -36 83 -94 131 -179 148 -328 388 -380 610
l-18 75 -65 45 c-93 64 -222 189 -296 288 -139 185 -213 389 -232 642 l-7 92
-72 108 c-82 122 -125 218 -157 347 -18 72 -22 116 -22 243 0 215 27 322 155
623 l33 77 -56 113 c-134 269 -186 481 -195 790 -6 196 2 296 37 457 19 86 80
272 106 322 17 33 17 38 2 37 -7 0 -116 -24 -243 -53z m-661 -1102 c20 -151
-3 -324 -60 -436 -29 -57 -144 -178 -170 -178 -9 0 -28 27 -47 68 -29 61 -32
76 -32 162 0 86 3 101 32 163 18 37 56 93 85 124 59 62 157 143 174 143 6 0
14 -21 18 -46z m-563 -391 c170 -177 238 -366 199 -550 -17 -79 -19 -80 -93
-45 -214 100 -290 333 -200 615 8 26 18 47 22 47 4 0 37 -30 72 -67z m789
-170 c-24 -259 -169 -427 -379 -441 l-74 -5 7 49 c19 131 57 215 140 302 65
69 130 116 224 164 56 27 78 34 83 25 3 -6 3 -49 -1 -94z m-965 -448 c84 -59
205 -190 249 -267 50 -90 80 -212 74 -300 -3 -38 -8 -71 -11 -74 -9 -10 -107
16 -167 44 -67 31 -149 112 -183 178 -53 106 -62 150 -62 299 0 77 3 148 7
158 9 21 9 21 93 -38z m985 -37 c-1 -280 -121 -467 -335 -523 -33 -8 -72 -15
-87 -15 -27 0 -28 1 -28 58 0 160 87 325 237 445 72 58 180 126 201 127 9 0
12 -25 12 -92z m7 -715 c14 -285 -107 -467 -351 -529 -23 -5 -24 -3 -36 65
-35 208 82 447 305 624 l50 39 13 -43 c8 -24 16 -95 19 -156z m-921 -28 c98
-70 199 -186 244 -279 44 -93 60 -160 60 -251 0 -75 4 -73 -101 -51 -239 51
-379 258 -379 561 0 61 3 114 6 118 7 7 87 -39 170 -98z m1048 -377 c37 -131
44 -243 21 -353 -27 -129 -99 -239 -193 -299 -30 -19 -142 -66 -156 -66 -12 0
-30 117 -29 190 1 166 75 322 231 483 52 53 99 97 103 97 5 0 15 -24 23 -52z
m-1064 -340 c204 -80 351 -202 426 -353 32 -65 67 -191 57 -207 -2 -5 -45 -8
-94 -8 -217 0 -380 122 -468 349 -24 63 -61 215 -61 253 0 13 51 1 140 -34z
m1239 -165 c91 -245 59 -487 -83 -628 -46 -46 -161 -115 -191 -115 -17 0 -44
90 -51 170 -13 132 37 299 127 430 54 79 157 200 169 200 4 0 17 -26 29 -57z
m228 -574 c124 -247 110 -485 -35 -642 -44 -47 -125 -107 -144 -107 -14 0 -66
119 -79 179 -16 80 -6 241 21 326 38 120 160 339 185 332 5 -1 29 -41 52 -88z
m-1321 -4 c199 -34 341 -102 456 -215 58 -58 86 -95 113 -151 19 -40 35 -79
35 -85 0 -19 -120 -47 -200 -47 -183 -1 -347 110 -462 313 -27 48 -78 171 -78
189 0 15 31 14 136 -4z m1658 -516 c78 -131 122 -288 112 -406 -6 -75 -34
-165 -71 -223 -25 -40 -140 -150 -157 -150 -25 0 -89 117 -114 211 -23 85 -22
241 1 334 23 91 67 204 112 284 l36 65 24 -30 c13 -16 38 -54 57 -85z m-1131
-198 c101 -27 188 -70 263 -130 64 -52 140 -152 129 -170 -3 -6 -30 -23 -58
-38 -208 -106 -442 -52 -629 145 -54 57 -135 168 -140 193 -7 34 306 34 435 0z
m1466 -247 c168 -191 239 -431 181 -615 -23 -77 -62 -140 -125 -205 l-47 -49
-40 45 c-158 175 -180 478 -56 788 18 45 36 82 39 82 4 0 26 -21 48 -46z
m-2396 -82 c81 -36 142 -118 167 -224 14 -64 12 -206 -5 -271 -32 -125 -110
-228 -203 -270 -55 -25 -158 -28 -239 -8 l-53 13 0 79 0 80 44 -30 c109 -75
208 -56 261 50 30 59 33 94 8 84 -90 -34 -204 -24 -271 25 -54 39 -79 77 -98
149 -56 222 178 416 389 323z m-611 -334 l-3 -353 25 -47 25 -48 -129 0 c-72
0 -130 2 -130 5 0 2 11 21 25 41 l25 37 0 273 0 273 -47 -14 c-27 -8 -49 -15
-50 -15 -2 0 -3 19 -3 43 l0 42 103 57 c61 35 114 58 132 58 l30 0 -3 -352z
m1995 56 c120 -35 175 -67 263 -152 l75 -72 -35 -31 c-55 -47 -162 -96 -239
-109 -155 -26 -323 32 -489 169 -52 43 -153 161 -147 172 6 9 130 37 217 49
101 14 256 3 355 -26z m478 -541 c106 -26 275 -121 275 -154 0 -18 -73 -89
-132 -129 -213 -142 -506 -96 -771 123 -26 21 -45 43 -42 47 3 4 40 23 83 41
211 88 419 114 587 72z"/>
        <path d="M10428 15424 c-88 -47 -92 -249 -7 -294 34 -19 115 -7 144 20 21 20
23 29 19 69 -14 116 -26 155 -59 188 -36 36 -56 40 -97 17z"/>
        <path d="M12746 18870 c-58 -146 -78 -319 -52 -450 22 -108 46 -165 112 -266
231 -352 820 -603 1624 -691 125 -13 245 -18 490 -18 245 0 365 5 490 18 561
62 1018 201 1324 404 117 77 264 221 315 306 125 212 141 428 49 679 l-20 58
-80 -75 c-506 -476 -1614 -713 -2695 -575 -619 79 -1155 289 -1456 570 l-85
80 -16 -40z"/>
        <path d="M12947 17748 c56 -566 600 -910 1608 -1020 177 -19 596 -16 775 5
592 72 994 213 1269 446 127 108 233 281 270 441 21 94 33 190 24 190 -3 0
-49 -28 -101 -61 -360 -233 -893 -382 -1537 -429 -596 -43 -1301 42 -1771 215
-133 49 -362 161 -455 224 -42 28 -80 51 -83 51 -3 0 -3 -28 1 -62z"/>
        <path d="M13540 16825 c0 -24 42 -150 67 -200 61 -122 186 -259 311 -344 199
-134 494 -237 795 -276 212 -27 411 -14 652 44 426 103 733 307 868 576 25 50
67 176 67 200 0 10 -25 3 -84 -20 -314 -127 -751 -208 -1201 -222 -460 -14
-1009 72 -1376 216 -67 26 -99 35 -99 26z"/>
        <path d="M14023 16056 c60 -154 135 -443 158 -603 l11 -82 77 -30 c236 -90
478 -144 651 -144 173 0 415 54 651 144 l76 29 17 110 c26 168 97 437 151 573
6 14 -4 12 -64 -13 -278 -118 -546 -175 -831 -175 -287 0 -552 56 -829 174
-48 20 -71 26 -68 17z"/>
        <path d="M14334 15161 c16 -52 99 -499 126 -681 18 -118 34 -221 36 -227 3
-10 96 -13 423 -13 l421 0 4 23 c3 12 10 58 16 102 27 196 129 755 146 799 4
11 -16 8 -78 -11 -113 -33 -290 -70 -409 -84 -77 -9 -121 -9 -198 0 -118 14
-295 51 -409 84 -71 21 -82 22 -78 8z"/>
        <path d="M7700 12420 l0 -1430 7300 0 7300 0 0 1430 0 1430 -7300 0 -7300 0 0
-1430z m9775 879 c90 -11 250 -57 293 -85 21 -14 22 -19 22 -182 l0 -168 -59
57 c-106 103 -238 154 -380 147 -144 -7 -227 -63 -238 -161 -11 -93 63 -173
261 -282 248 -138 355 -220 426 -328 61 -94 84 -178 78 -293 -5 -83 -10 -104
-42 -168 -110 -224 -382 -334 -731 -297 -112 13 -313 69 -332 94 -8 10 -33
265 -33 333 0 17 8 13 49 -25 59 -56 181 -122 279 -151 108 -33 233 -26 317
17 69 36 98 63 120 115 24 58 19 115 -15 174 -39 69 -78 98 -259 193 -183 97
-257 148 -337 233 -111 119 -149 214 -142 353 16 301 310 474 723 424z m-8563
-42 c-33 -35 -72 -130 -83 -201 -6 -40 -9 -249 -7 -533 4 -450 5 -471 26 -534
28 -84 83 -148 154 -180 105 -46 287 -22 433 59 l50 27 3 590 c2 639 3 635
-53 748 l-24 47 249 0 c138 0 250 -2 250 -4 0 -2 -13 -32 -30 -67 -16 -35 -34
-93 -39 -129 -7 -40 -11 -297 -11 -660 0 -662 2 -682 65 -796 l35 -64 -203 2
-202 3 -11 58 c-7 32 -14 60 -16 62 -2 2 -24 -9 -48 -24 -113 -70 -261 -111
-402 -111 -295 0 -470 122 -540 377 -20 74 -21 108 -27 638 -7 603 -6 591 -62
681 l-21 34 268 0 267 0 -21 -23z m1623 -184 c249 -301 542 -668 605 -757 l55
-77 3 418 c2 400 1 421 -19 488 -11 39 -30 85 -41 103 l-20 32 242 0 242 0
-25 -30 c-14 -16 -36 -56 -48 -87 -23 -58 -23 -59 -30 -743 -4 -377 -7 -724
-8 -772 l-1 -88 -88 0 c-83 0 -90 2 -114 28 -14 15 -204 254 -423 532 -219
278 -408 516 -421 530 l-24 25 0 -420 c0 -241 5 -447 10 -484 9 -53 23 -94 67
-198 4 -10 -45 -13 -227 -13 -127 0 -230 3 -228 8 2 4 19 36 38 72 l35 65 0
695 c0 776 3 738 -71 836 l-34 44 178 0 177 -1 170 -206z m1670 180 c-37 -57
-43 -69 -61 -123 -18 -51 -19 -97 -19 -715 l0 -660 23 -57 c13 -31 34 -73 47
-93 14 -20 25 -38 25 -40 0 -3 -120 -5 -266 -5 -146 0 -264 3 -262 8 2 4 15
30 29 57 60 113 59 100 59 804 0 696 0 693 -54 799 l-26 52 261 0 261 0 -17
-27z m614 -30 c-53 -99 -49 -114 160 -652 99 -255 182 -466 184 -468 2 -1 86
207 187 464 180 458 184 470 184 545 1 70 -1 80 -31 122 l-33 46 261 0 261 0
-21 -27 c-54 -70 -101 -144 -134 -208 -34 -69 -213 -488 -349 -819 -38 -94
-117 -283 -175 -419 l-106 -248 -86 3 -86 3 -306 720 c-168 396 -322 752 -342
791 -20 40 -59 102 -86 138 l-50 66 300 0 299 0 -31 -57z m2325 -90 c4 -82 9
-168 11 -193 l5 -44 -42 41 c-91 87 -153 103 -415 103 l-203 0 0 -236 0 -235
223 3 223 3 72 36 72 35 0 -194 c0 -181 -1 -194 -17 -187 -10 4 -54 21 -98 36
-78 28 -86 29 -277 29 l-198 0 0 -261 0 -261 223 4 c216 3 223 4 279 30 31 14
77 45 102 69 26 23 48 40 49 38 2 -2 -2 -89 -8 -194 l-10 -190 -537 -3 c-296
-1 -538 0 -538 3 0 3 11 23 25 45 14 22 36 74 50 115 l26 76 -3 647 -3 647
-23 57 c-13 31 -34 73 -47 92 l-24 36 538 0 539 0 6 -147z m916 118 c186 -56
310 -162 361 -309 29 -81 36 -220 16 -299 -35 -136 -126 -263 -229 -317 -29
-16 -55 -30 -57 -32 -2 -2 70 -121 160 -266 151 -244 171 -271 266 -365 l103
-103 -314 0 -315 0 24 35 c32 48 38 83 23 127 -7 20 -80 144 -163 277 l-150
240 -48 1 -49 0 4 -247 c4 -225 6 -253 26 -308 12 -33 31 -72 42 -87 11 -15
20 -30 20 -33 0 -3 -117 -5 -259 -5 l-260 0 30 58 c59 117 59 117 59 812 0
689 -1 701 -56 799 -13 24 -24 46 -24 48 0 3 161 3 358 1 335 -4 362 -6 432
-27z m2415 -7 c-13 -19 -34 -61 -47 -92 l-23 -57 -3 -645 c-2 -424 1 -661 8
-695 6 -28 26 -82 45 -120 19 -38 35 -70 35 -72 0 -2 -119 -3 -264 -3 l-264 0
34 63 c64 122 64 116 64 804 0 424 -4 639 -11 675 -9 43 -35 108 -67 171 -2 4
114 7 257 7 l260 0 -24 -36z m1445 -157 l0 -194 -57 58 c-78 77 -120 89 -310
89 l-144 0 3 -632 c3 -631 3 -633 26 -689 12 -31 38 -78 57 -105 l35 -49 -271
-3 c-150 -1 -274 -1 -276 1 -2 2 12 30 31 61 65 107 66 125 66 806 l0 612
-162 -4 c-191 -4 -217 -13 -307 -107 l-54 -56 7 34 c3 18 6 109 6 202 l0 169
675 0 675 0 0 -193z m640 189 c0 -2 -7 -20 -15 -39 -35 -83 -24 -112 166 -425
l147 -243 35 63 c140 255 239 452 249 499 10 48 9 59 -10 102 l-21 47 246 0
245 0 -55 -60 c-92 -99 -134 -166 -367 -580 l-221 -395 3 -246 3 -246 45 -89
c25 -49 47 -92 48 -96 2 -5 -116 -8 -263 -8 -147 0 -265 3 -263 8 2 4 16 33
31 63 50 101 57 144 57 390 l0 227 -235 402 c-245 417 -286 484 -361 575 l-44
55 290 0 c159 0 290 -2 290 -4z"/>
        <path d="M15690 12760 l0 -283 83 6 c143 10 211 46 262 138 27 49 30 62 30
149 0 87 -3 100 -30 150 -24 44 -41 61 -85 84 -47 26 -67 30 -157 34 l-103 5
0 -283z"/>
        <path d="M5860 12946 c0 -2 185 -324 411 -715 l410 -711 -408 -707 c-224 -388
-409 -710 -411 -715 -2 -4 549 -9 1224 -10 l1227 -3 47 -110 c395 -935 1083
-1684 2160 -2352 333 -207 710 -413 1430 -783 968 -497 1383 -740 1800 -1050
265 -198 338 -265 842 -774 l408 -411 437 441 c450 452 566 559 795 731 430
322 819 549 1798 1053 697 358 990 517 1308 707 1161 694 1869 1440 2291 2413
l59 135 1227 3 c674 1 1225 6 1223 10 -2 5 -187 327 -411 715 l-408 707 410
711 c226 391 411 713 411 715 0 2 -326 4 -725 4 l-725 0 0 -1175 0 -1175 -683
0 -683 0 -23 -77 c-69 -237 -226 -585 -372 -828 -181 -303 -356 -523 -634
-800 -266 -265 -496 -453 -840 -685 -396 -266 -718 -447 -1538 -867 -1139
-581 -1512 -798 -1977 -1149 -240 -181 -399 -324 -691 -618 l-249 -251 -282
282 c-304 303 -428 413 -663 588 -448 334 -854 572 -1815 1065 -510 261 -744
385 -965 508 -1119 623 -1767 1193 -2219 1950 -129 215 -293 584 -357 805
l-23 77 -683 0 -683 0 0 1175 0 1175 -725 0 c-399 0 -725 -2 -725 -4z"/>
        <path d="M9210 10589 c0 -26 119 -308 186 -440 296 -585 770 -1082 1484 -1553
367 -243 711 -434 1600 -891 201 -103 437 -226 525 -273 857 -456 1398 -822
1868 -1264 l127 -120 128 120 c355 335 746 622 1267 929 323 191 544 310 1247
672 778 400 1146 606 1493 836 698 463 1171 959 1464 1535 71 139 191 422 191
449 0 8 -1720 11 -5790 11 -4070 0 -5790 -3 -5790 -11z m1950 -547 l55 -18 3
-69 3 -69 -23 21 c-56 51 -154 72 -206 44 -62 -33 -48 -91 35 -142 142 -87
174 -112 199 -154 14 -24 28 -59 31 -78 12 -76 -42 -162 -127 -200 -60 -27
-193 -27 -265 0 l-50 19 -6 64 c-3 36 -4 67 -3 69 2 1 18 -9 37 -23 75 -57
171 -71 228 -33 28 19 35 30 37 64 3 35 -1 44 -28 66 -17 15 -62 43 -101 63
-82 43 -155 119 -165 170 -31 164 145 268 346 206z m3788 -7 l42 -17 0 -71 0
-71 -27 26 c-37 34 -63 47 -120 58 -148 28 -263 -97 -251 -275 7 -112 83 -212
173 -229 56 -11 139 11 190 50 l45 34 0 -65 c0 -60 -2 -65 -28 -79 -86 -45
-241 -45 -339 -2 -259 117 -267 494 -13 626 80 42 243 50 328 15z m673 11 c71
-22 101 -40 148 -91 69 -75 86 -122 86 -245 0 -123 -19 -177 -88 -248 -49 -50
-82 -70 -152 -88 -182 -49 -368 52 -415 226 -30 107 -7 240 55 330 72 104 236
155 366 116z m2804 -1 c32 -9 65 -21 72 -27 9 -7 13 -36 13 -86 l0 -76 -37 36
c-53 50 -97 70 -157 70 -94 1 -158 -40 -204 -127 -22 -42 -26 -63 -26 -130 0
-68 4 -88 27 -133 31 -59 89 -106 143 -116 19 -4 60 -2 91 4 l55 12 -4 98 c-2
79 -7 102 -22 119 l-19 21 107 0 107 0 -16 -30 c-11 -20 -15 -59 -15 -134 0
-101 -1 -105 -27 -125 -44 -36 -129 -56 -233 -56 -88 0 -101 3 -162 33 -123
60 -190 169 -190 307 0 244 238 407 497 340z m-6445 -71 l0 -76 -31 26 c-26
23 -40 26 -100 26 l-69 0 0 -250 c0 -232 2 -254 20 -290 l20 -40 -105 0 -106
0 16 30 c12 24 15 76 15 290 l0 260 -65 0 c-58 0 -68 -3 -100 -31 l-35 -31 0
81 0 81 270 0 270 0 0 -76z m1450 0 l0 -76 -31 26 c-26 23 -40 26 -100 26
l-69 0 0 -250 c0 -232 2 -254 20 -290 l20 -40 -104 0 -105 0 15 35 c11 27 14
89 14 290 l0 255 -63 0 c-62 0 -96 -13 -124 -50 -10 -12 -12 1 -13 68 l0 82
270 0 270 0 0 -76z m620 1 l0 -74 -36 24 c-33 22 -47 25 -130 25 l-94 0 0 -91
0 -90 98 4 c53 2 107 7 120 11 21 8 22 7 22 -64 0 -71 -1 -72 -22 -65 -13 4
-67 10 -120 12 l-98 5 0 -101 0 -101 94 0 c83 0 97 3 130 25 l36 24 0 -74 0
-75 -215 0 -216 0 18 33 c16 28 18 62 18 307 0 245 -2 279 -18 308 l-18 32
216 0 215 0 0 -75z m2203 43 c-16 -29 -18 -67 -21 -290 l-3 -258 96 0 c96 0
147 13 158 42 3 7 6 -22 6 -64 l1 -78 -215 0 -216 0 18 33 c16 28 18 62 18
307 0 237 -2 279 -17 308 l-16 32 104 0 105 0 -18 -32z m631 11 c-18 -19 -19
-42 -22 -291 l-3 -270 105 4 c95 3 107 5 132 28 21 20 26 21 21 7 -4 -10 -7
-45 -7 -78 l0 -59 -215 0 -214 0 19 43 c18 38 20 67 20 300 0 207 -3 265 -15
294 -8 19 -15 37 -15 39 0 2 48 4 107 4 l106 0 -19 -21z m850 -16 c3 -21 6
-55 6 -76 l0 -38 -31 23 c-26 20 -45 24 -130 26 l-99 4 0 -91 0 -91 88 0 c56
0 97 5 115 14 l27 15 0 -79 0 -79 -35 15 c-20 8 -67 14 -115 14 l-80 0 0 -100
0 -100 93 0 c82 0 96 3 130 25 l37 26 0 -23 c0 -13 -3 -47 -6 -75 l-7 -53
-208 0 c-115 0 -209 3 -209 8 1 4 7 18 15 32 11 20 14 80 14 300 0 220 -3 280
-14 300 -8 14 -14 28 -15 33 0 4 94 7 209 7 l208 0 7 -37z m1458 -37 l3 -74
-30 22 c-25 17 -47 22 -127 24 l-98 4 0 -91 0 -91 85 0 c58 0 96 5 115 15 l30
16 0 -80 0 -80 -35 15 c-20 8 -67 14 -115 14 l-80 0 0 -101 0 -101 99 4 c87 3
103 6 123 26 14 12 26 22 29 22 2 0 3 -34 1 -75 l-4 -75 -213 0 -214 0 19 43
c18 38 20 66 20 297 0 231 -2 259 -20 298 l-19 42 214 0 213 0 4 -74z m-6676
27 c9 -21 58 -150 110 -287 52 -138 106 -270 119 -294 14 -25 25 -46 25 -48 0
-2 -47 -4 -104 -4 l-104 0 5 39 c4 26 -2 62 -17 105 l-22 67 -111 -3 -110 -3
-18 -50 c-20 -56 -24 -121 -9 -130 28 -17 1 -25 -85 -25 -52 0 -95 2 -95 4 0
2 11 23 25 48 30 53 205 533 205 562 0 11 -7 28 -17 38 -15 17 -12 18 85 18
l102 0 16 -37z m5552 -995 l3 -38 -3070 0 -3071 0 0 40 0 40 3068 -2 3067 -3
3 -37z m-2995 -698 l67 -210 228 -2 227 -3 -177 -128 c-98 -71 -180 -132 -182
-136 -3 -4 26 -101 64 -217 37 -115 67 -210 65 -212 -1 -2 -83 56 -181 128
-98 72 -184 128 -190 126 -7 -3 -90 -61 -184 -131 -95 -69 -174 -125 -175
-123 -2 2 27 97 65 212 38 115 67 213 64 217 -2 4 -84 65 -182 136 l-177 128
227 3 227 2 67 210 c37 116 70 210 74 210 3 0 36 -94 73 -210z"/>
        <path d="M15460 9949 c-73 -30 -112 -103 -118 -220 -6 -125 25 -203 102 -250
38 -23 115 -25 155 -4 135 69 150 356 24 452 -39 30 -119 41 -163 22z"/>
        <path d="M12378 9773 l-34 -98 69 -3 c38 -2 71 -1 73 1 4 4 -62 187 -70 194
-2 2 -19 -40 -38 -94z"/>
    </g>
</svg>
