<?xml version="1.0" encoding="UTF-8" standalone="no"?>

<svg
   version="1.1"
   id="svg2"
   width="100%"
   height="100%"
   viewBox="0 0 4000 4000"
   xmlns="http://www.w3.org/2000/svg"
>
  <defs
     id="defs6" />
  <g
     id="g8"
     transform="matrix(1.3333333,0,0,-1.3333333,0,4000)">
    <g
       id="g10"
       transform="scale(0.1)">
      <path
         d="M 0.00390625,30000 H 30000 V 0 H 0.00390625 v 30000"
         style="fill:#ffffff;fill-opacity:0;fill-rule:evenodd;stroke:none"
         id="path12" />
      <path
         d="m 21502.5,14241.5 v 5874.6 l -288.3,137.9 c -1453.3,695.1 -2909.7,1145.6 -4366.9,1352 15.8,130.4 9.4,299.1 -62.2,520.5 1552.4,-204.7 3103.2,-676.2 4647.9,-1415 l 576.6,-275.7 v -6194.3 h -507.1 z M 8675.6,10598.6 c 162.29,-559.2 441.83,-1074.2 864.73,-1539.9 898.97,-989.9 2231.57,-1529.7 3386.87,-2157.5 443.4,-241 881,-503.1 1276,-818.7 152.4,-121.7 298.3,-251.5 435,-390.6 l 361.7,-368.2 361.7,368.2 c 1428.5,1453.9 3709.5,1838.1 5097.8,3366.8 422.9,465.7 702.4,980.7 864.7,1539.9 h 1369.5 v 2350.5 h 1450.1 l -825.4,-1429.6 825.4,-1429.6 h -2456.5 c -190.4,-492.2 -470.1,-951.2 -852.4,-1372.1 -959.4,-1056.5 -2293.3,-1595.5 -3520,-2262.2 -565.5,-307.3 -1137.5,-657 -1591.5,-1119.2 l -723.4,-736.3 -723.5,736.3 c -122.4,124.7 -253.3,240.9 -389.8,350 -371.1,296.5 -785,542.8 -1201.6,769.2 -1226.7,666.7 -2560.6,1205.7 -3520.1,2262.2 -382.26,421 -661.93,879.9 -852.31,1372.1 h -2456.3 l 825.38,1429.6 -825.38,1429.6 H 7306.13 V 10598.6 H 8675.6 Z m -108.8,10112.9 c 1401.42,670.3 2807.8,1120.7 4216,1351.3 10,-45.4 15.5,-91.9 17.1,-127.9 5.6,-132.2 -21.3,-266.4 -66.8,-395 -1317.2,-229 -2633.6,-657.5 -3947.5,-1285.8 l -288.29,-137.9 v -5874.7 h -507.12 v 6194.3 l 576.63,275.7 h -0.02"
         style="fill:#bb1b21;fill-opacity:1;fill-rule:evenodd;stroke:none"
         id="path14" />
      <path
         d="M 20792.4,10598.6 C 19967.4,8145.8 16818,7897.7 14999.9,6047.2 13181.8,7897.7 10032.4,8145.8 9207.39,10598.6 H 20792.4 Z M 15688,14241.5 c 40.1,287.6 90.3,568.5 151.5,838.1 l 131.3,56.7 20.3,202.2 c 20.8,206.7 79.9,415.4 152.7,609.3 l 35.9,95.8 c 19.6,14.9 38.8,30.4 57.5,46.2 212.6,180 357.1,413.3 404.7,689.6 l 0.5,3 c 32.7,21.1 64.6,43.3 95.6,66.5 314.1,236 494.2,563.1 501.7,958.8 l 0.9,46.3 c 81.6,96.1 148.6,204.4 194.8,326.1 108.4,285.7 77.3,585.3 -40.9,862.5 l -208.7,489.5 c 65.7,217.1 82.2,437.6 73.6,677.7 -8.7,245.4 -75,605 124.7,793.5 1203.8,-228.9 2407.5,-631 3611.3,-1206.7 V 14241.5 H 15688 Z m -6683.61,5555.1 c 1144.91,547.5 2289.81,937.9 3434.71,1171.8 -172,-368 -208.9,-779.6 -117.5,-1181.8 44.5,-196.1 117,-374.3 212.2,-534.9 l -89.1,-209.1 c -118.2,-277.1 -149.3,-576.8 -40.9,-862.5 46.2,-121.7 113.2,-230 194.8,-326.1 l 0.9,-46.2 c 7.4,-395.7 187.6,-722.9 501.7,-958.9 30.9,-23.3 62.8,-45.4 95.6,-66.5 l 0.5,-3 c 47.6,-276.3 192,-509.6 404.6,-689.6 18.8,-15.8 38,-31.3 57.6,-46.2 l 35.9,-95.8 c 72.7,-193.9 131.8,-402.6 152.7,-609.3 l 20.3,-202.2 131.2,-56.7 c 61.2,-269.6 111.5,-550.5 151.6,-838.1 H 9004.38 v 5555.1 h 0.01"
         style="fill:#112c4a;fill-opacity:1;fill-rule:evenodd;stroke:none"
         id="path16" />
      <path
         d="m 15647,15373.1 c 24.8,246.1 95.8,490.2 173,696.1 -166.9,-82.8 -355.1,-141.1 -549,-176.6 -115.1,-21 -232.4,-34.2 -348.3,-39.6 h -6.3 c -115.9,5.4 -233.1,18.6 -348.3,39.6 -194,35.5 -382.1,93.8 -549,176.6 77.2,-205.8 148.2,-450 172.9,-696.1 122.4,-52.8 243.9,-92.4 361.5,-121.3 127.9,-31.5 251,-50.7 366,-61.2 115,10.5 238.1,29.7 366,61.2 117.6,28.9 239,68.4 361.4,121.3 z m -2109,1465.1 c 34.2,-198.4 138.9,-358.9 287.3,-484.4 198.6,-168 474.9,-275.5 767.1,-328.9 107.9,-19.8 218,-32.2 327.2,-37.4 109.1,5.2 219.3,17.6 327.2,37.4 292.1,53.4 568.5,160.8 767,328.9 148.4,125.5 253.1,286 287.3,484.4 -195.9,-88.2 -416.8,-149.9 -643.4,-191.3 -246.9,-45.2 -501.1,-66.6 -736.6,-72.3 h -3.1 c -235.5,5.7 -489.7,27.1 -736.6,72.3 -226.6,41.5 -447.5,103.1 -643.4,191.3 z m -592.8,976.1 c 5.7,-302.8 147,-526.1 363.6,-689 234.7,-176.3 558.1,-284.2 896.8,-346.2 239.2,-43.7 485.5,-64.5 714,-70.1 228.4,5.6 474.7,26.4 713.9,70.1 338.7,62 662.1,169.9 896.8,346.2 216.6,162.9 357.9,386.2 363.7,689 -74.7,-56.4 -158.1,-108.2 -248.9,-155.4 -451.4,-234.8 -1089.2,-352.2 -1725.6,-352.2 -636.3,0 -1274.1,117.4 -1725.6,352.2 -90.7,47.2 -174.1,99 -248.8,155.4 z m -182.5,1092.7 c -217.6,-510.5 28.8,-886.9 493.4,-1128.6 431.9,-224.5 1047,-336.9 1663.5,-336.9 616.4,0 1231.5,112.3 1663.4,336.9 464.7,241.7 711.1,618.1 493.4,1128.6 -54.1,-59 -115.4,-114.1 -183,-165.4 -460.1,-349.3 -1218,-524 -1973.8,-523.9 v -0.3 c -755.6,0 -1513.5,174.8 -1973.8,524.2 -67.6,51.3 -129,106.4 -183.1,165.4 z m 1736,-4665.5 c -43.4,325 -98.7,639 -166.3,934.2 63.6,-21.2 126.8,-39.3 189,-54.6 136,-33.5 268.1,-53.7 392.4,-64.8 l 5.8,-0.5 5.8,0.5 c 124.2,11.1 256.4,31.4 392.3,64.8 62.2,15.3 125.4,33.4 189.1,54.6 -67.7,-295.2 -122.9,-609.2 -166.3,-934.2 h -841.8"
         style="fill:#112c4a;fill-opacity:1;fill-rule:evenodd;stroke:none"
         id="path18" />
      <path
         d="m 15441.1,25399.9 c -844.4,-936.5 200,-1508.6 -53,-1989.2 1096,968.9 -397,945.2 53,1989.2 z m 1181,-845.2 c 473.6,-989.4 -294.8,-1316.3 140.3,-2120.9 -462,211.7 -625.4,639.5 -471.9,1105.1 126.5,383.5 356.2,640.8 331.6,1015.8 z m -3294.7,-205 c 465.2,-706.5 -315.9,-1336.8 4.9,-1759.2 -906.6,670.7 150.7,968.7 -4.9,1759.2 z m 1138.1,76.7 c 366,-1030.5 129.8,-1676.5 -169.3,-1815 -128,-59.3 -602,329.7 -312.9,971.3 -633.1,-511.2 -466,-922.9 -243.7,-1427.5 118.1,-268.1 209.6,-505.7 -86.9,-859.3 16.7,390.1 -100.2,837.5 -628.3,1082.3 0,0 370.2,-519.5 -185.1,-1397.3 -224.9,-355.4 -262.9,-755.4 -180.6,-1117.7 152,-669 704.7,-1085.6 1363.4,-1267 -205.9,217.4 -240,570 99.9,1022.5 501.9,668.6 -168.1,663.9 152.7,1343.6 1.2,-622.6 933.3,-868.1 599.6,-1821.6 459.4,300.6 443.8,906.6 239.2,1354.8 702.6,-552.6 808.2,-1552.7 155.8,-1973.7 655.4,94 1243.4,397.9 1498.8,896.3 384.7,750.8 -180.9,1394.6 452.2,1846.8 -652.3,-67.1 -989.6,-513.3 -1038.3,-1062.3 -154.4,513 -30.9,765.8 121.1,979.7 733.5,1032.6 -749.2,1384.6 -273.5,2474.5 -385.8,-415.9 -742.6,-1110.6 -556.4,-1684.7 330.3,-1018.8 -1515.4,-1076.2 -553.7,588.5 377.7,653.9 307,1379.6 -454,1865.7 v 0.1"
         style="fill:#bb1b21;fill-opacity:1;fill-rule:evenodd;stroke:none"
         id="path20" />
      <path
         d="M 7697.97,13849.6 H 22301.8 V 10990.4 H 7697.97 v 2859.2"
         style="fill:#bb1b21;fill-opacity:1;fill-rule:evenodd;stroke:none"
         id="path22" />
      <path
         d="m 11491.8,11566.1 h -185.1 l -885.8,1120.7 v -839 c 0,-39.2 3.9,-75.3 11.5,-108.5 8.1,-33.2 16.6,-62.2 26.4,-86.8 9.8,-24.3 19.1,-44.3 28.1,-60 8.9,-15.8 15.3,-24.3 19.1,-26.4 h -469.7 l 23.4,29.4 c 4.3,2.1 16.2,24.2 37,67.6 20.5,43 30.7,104.7 30.7,184.7 v 1153 c 0,41.3 -5.5,78.3 -16.2,111.5 -10.6,33.6 -23.4,62.1 -38.3,86.8 -14.4,24.2 -28.1,43.8 -40.8,58.7 -12.8,14.5 -20,23 -22.2,24.7 h 346.4 c 33.2,-40.9 76.1,-92.8 128.9,-155.3 53.2,-62.6 108.9,-130.2 167.6,-202.6 58.3,-72.3 118.8,-146.3 180.4,-221.6 61.3,-75.3 118.3,-145.6 170.2,-211.1 51.5,-65.5 95.7,-123.4 131.9,-173.1 36.2,-49.8 60,-85.6 71.9,-107.2 v 789.2 c 0,41.3 -4.2,78.3 -13.2,111.5 -8.9,33.6 -18.3,62.1 -28.1,86.8 -9.8,24.2 -20,43.8 -30.6,58.7 -10.6,14.5 -17,23 -19.1,24.7 h 484.1 c -3.8,-1.7 -11.4,-9.4 -23.4,-23.5 -11.9,-13.6 -23.4,-33.1 -35.3,-58.7 -11.5,-25.1 -22.6,-54.4 -32.3,-88 -9.8,-33.2 -14.5,-70.2 -14.5,-111.5 l -3,-1434.7 z m 628,281.7 c 0,-39.2 4.7,-74.9 13.2,-107.3 9,-32.3 19.2,-60.8 31.1,-86.3 11.5,-25.6 23,-45.6 33.6,-60 10.7,-14.9 17.9,-24.3 22.2,-28.1 h -496.1 -38.3 c 2.1,0 8.5,7.2 19.1,22.1 11.1,14.5 22.1,34.5 34.1,60 11.4,25.5 22.1,55.3 31.9,89.4 9.7,34.4 14.8,71 14.8,110.2 v 1153 c 0,41.3 -3.8,78.3 -11.9,111.5 -7.6,33.6 -17,62.1 -27.6,86.8 -10.7,24.2 -21.3,43.8 -31.1,58.7 -9.8,14.5 -15.3,23 -17.4,24.7 h 531 c -3.9,-1.7 -11.5,-9.4 -23.4,-23.5 -11.6,-13.6 -23.9,-33.1 -36.7,-58.7 -12.7,-25.1 -23.8,-54.4 -33.6,-88 -9.8,-33.2 -14.9,-70.2 -14.9,-111.5 z m 1044.6,237.8 360.8,924.1 c 13.6,41.3 20.8,79.2 20.8,114.5 0,19.6 -4.2,39.1 -11.9,58.7 -8.1,19.6 -16.6,36.6 -26.4,51.5 -9.8,14.4 -18.7,26.4 -26.4,34.9 -8,8.9 -12.7,13.2 -14.9,13.2 h 531.5 c -4.3,-1.7 -12.8,-10.7 -26.8,-26.4 -13.7,-15.4 -29.8,-36.2 -48.1,-61.3 -18.8,-25.5 -38.3,-55.3 -58.7,-89.8 -20.9,-34 -39.6,-71.8 -57.5,-112.7 -91.9,-215.3 -168.4,-396.6 -230.2,-544.6 -61.6,-147.7 -114.4,-275.3 -158.2,-382.9 -44.3,-107.3 -83,-200 -116.2,-277 -33.2,-77.4 -65.5,-151.1 -97,-221.7 H 13038 l -604.2,1426.2 c -17.8,39.2 -36.2,75.7 -55.7,109.8 -19.6,34.4 -38.7,64.6 -57.4,91 -18.7,26.4 -34.5,47.7 -48.5,63 -13.7,15.7 -22.6,24.7 -26.4,26.4 h 607.6 c -7.7,-9.4 -20.9,-29.8 -39.6,-60 -18.8,-30.3 -28.1,-63 -28.1,-98.3 0,-35.3 6.8,-73.2 20.8,-114.5 l 357.8,-924.1 z m 1969.1,-519.5 h -1076.9 c 1.7,0 8.1,7.2 18.7,22.1 11.1,14.5 22.6,34.5 35.3,60 12.8,25.5 24.7,55.3 35.3,89.4 10.7,34.4 16.2,71 16.2,110.2 v 1153 c 0,41.3 -5.1,78.3 -14.9,111.5 -9.8,33.6 -20.8,62.9 -33.6,88 -12.8,25.6 -24.2,45.6 -35.3,60.5 -10.7,14.4 -17,21.7 -19.2,21.7 h 41.3 1035.6 l 14.9,-334.5 3,-46.8 c -23.4,40.9 -64.2,75.3 -121.7,102.6 -57.8,27.6 -125.9,41.2 -204.2,41.2 h -331.5 v -481.2 h 337.4 c 56.6,0 109.8,10.2 158.7,30.7 49,20.4 80,38.7 93.6,54.4 v -393.1 c -1.7,1.7 -10.6,7.2 -26.3,16.1 -15.8,8.6 -35.4,17.5 -58.7,26.4 -23.5,8.6 -49.8,17 -79.2,24.7 -29.4,8.1 -58.7,11.9 -88.1,11.9 h -337.4 V 11804 h 331.5 c 76.6,0 143.4,15.3 201.2,46.8 57.5,31.4 99.2,66.3 124.7,105.5 l -3,-43.9 -17.4,-346.3 z m 554.4,1479 v -566.3 h 64.6 c 111.5,0 193.2,27.2 244.7,82.1 51.9,54.8 77.9,120.4 77.9,196.5 0,99.6 -24.8,172.8 -74.9,218.7 -49.8,46 -123.4,69 -221.3,69 h -91 z m 0,-798.2 v -399.1 c 0,-39.2 3.8,-74.9 11.9,-107.2 7.6,-32.4 16.6,-60.9 26.4,-86.4 9.7,-25.6 20,-45.5 30.6,-60 10.7,-14.9 18.3,-24.3 22.2,-28.1 h -516.6 c 2.2,0 7.7,7.3 17.5,22.1 9.8,14.5 20,34.5 31,60 10.7,25.6 20.5,55.3 29.4,89.4 8.5,34.4 13.2,71 13.2,110.2 v 1153 c 0,41.3 -3.8,78.3 -11.9,111.5 -7.7,33.6 -17.1,62.1 -27.7,86.8 -11.1,24.2 -21.3,43.8 -31.1,58.7 -9.8,14.5 -15.7,23 -17.4,24.7 h 510.5 c 95.8,0 184.7,-10.2 266.8,-30.6 82.6,-20.5 153.2,-52 212.8,-94.1 59.9,-41.7 106.8,-96.2 140.8,-162.5 34.5,-66.8 51.5,-146 51.5,-237.9 0,-51 -7.3,-100.4 -22.2,-148 -14.4,-48.1 -35.7,-92.8 -62.9,-133.7 -27.3,-41.2 -59.6,-77.4 -96.6,-108.4 -37.4,-31.5 -78.3,-55.8 -123.4,-73.6 46.8,-76.2 97.4,-157 151.1,-242.1 54,-85.1 104.2,-166.8 151,-244.7 17.9,-27.7 38.3,-54 61.7,-79.6 23.4,-25.1 46,-48.9 67.6,-70.2 21.3,-21.7 42.2,-40 61.3,-55.7 19.6,-15.7 35.3,-27.7 47.2,-35.3 h -630.9 c 15.7,11.9 29.3,28.5 41.2,49.8 11.5,21.7 17.5,43 17.5,64.6 0,27.3 -11.9,60.9 -35.3,99.6 -46.8,76.6 -95.4,153.2 -145.1,230.6 -49.8,77 -99.2,156.2 -148.1,236.2 h -94 z m 1837.2,-255.3 c 0,37 -8.1,69.8 -23.9,98.3 -15.3,28.5 -35.3,54 -59.9,76.1 -24.3,22.6 -53.2,43.5 -86.4,61.7 -33.6,18.7 -67.7,36.6 -103,54.5 -58.7,27.2 -117.8,59.1 -177.4,95.3 -59.5,36.1 -113.6,77.8 -161.2,124.6 -48.1,46.9 -87.3,98.7 -117.5,155.8 -30.2,56.6 -45.5,119.9 -45.5,190.6 0,66.3 14,127.6 42.5,183.3 28.6,55.8 68.1,104.3 118.7,145.1 51.1,41.3 110.7,72.8 179.2,95.4 68.5,22.5 143.8,34 225.9,34 113.6,0 208.5,-11.1 284.6,-32.4 76.2,-21.7 137.9,-45.9 184.7,-73.6 v -284.6 -52.7 c -11.5,23.4 -31.5,48 -60,73.6 -28.5,25.1 -61.2,48 -98.3,68.9 -37,20.4 -77.4,37.4 -120.4,51 -43,14.1 -83.8,20.9 -123,20.9 -96.1,0 -166.3,-19.2 -211.4,-57.5 -45.1,-37.8 -67.7,-81.7 -67.7,-130.6 0,-29.3 9,-57 26.4,-83.4 17.9,-26.4 40.9,-51.4 69.4,-74.8 28.1,-23.5 60.8,-46.4 98.2,-69 37.1,-22.5 75.4,-43.4 114.5,-62.9 64.2,-35.4 125.1,-71.5 181.7,-109 56.6,-37 106.3,-78.7 148.1,-124.6 42.1,-46 75.2,-96.2 100,-151.1 24.2,-54.9 36.5,-116.1 36.5,-184.6 0,-72.4 -15.7,-139.2 -46.8,-199.6 -31.5,-60.8 -74.8,-113.1 -130.6,-157 -55.7,-44.2 -121.3,-78.3 -196.6,-102.9 -75.3,-24.3 -157.8,-36.6 -248,-36.6 -117.5,0 -216.6,10.6 -297.9,32.3 -81.2,21.7 -145,45.1 -192.3,70.6 l -26.3,316.6 v 35.3 c 13.6,-25.5 38.7,-51.5 74.8,-77.8 36.2,-26.4 76.2,-50.7 120.4,-73.2 43.9,-22.6 89.8,-40.5 137.9,-54.5 48.1,-13.6 91.5,-20.4 130.6,-20.4 50.7,0 96.2,6.8 136.6,20.4 40,14.1 73.6,31.5 101.3,53.2 27.2,21.3 47.6,46 61.2,73.2 14.1,27.2 20.9,54.9 20.9,82.1 z m 871.3,-143.8 c 0,-39.2 4.7,-74.9 13.2,-107.2 8.9,-32.4 19.2,-60.9 31.1,-86.4 11.5,-25.6 22.9,-45.5 33.6,-60 10.6,-14.9 17.9,-24.3 22.1,-28.1 h -496.1 -38.3 c 2.2,0 8.5,7.3 19.2,22.1 11,14.5 22.1,34.5 34,60 11.5,25.6 22.1,55.3 31.9,89.4 9.8,34.4 14.9,71 14.9,110.2 v 1153 c 0,41.3 -3.8,78.3 -11.9,111.5 -7.6,33.6 -17,62.1 -27.6,86.8 -10.7,24.2 -21.3,43.8 -31.1,58.7 -9.8,14.5 -15.3,23 -17.5,24.7 h 531 c -3.8,-1.7 -11.4,-9.4 -23.4,-23.4 -11.5,-13.6 -23.8,-33.2 -36.6,-58.7 -12.7,-25.1 -23.8,-54.5 -33.6,-88.1 -9.8,-33.2 -14.9,-70.2 -14.9,-111.5 v -1153 z m 178.7,1434.7 h 1338.1 l 6,-390.2 c -25.5,35.4 -49.4,62.6 -71.9,82.1 -22.6,19.6 -46,34.9 -70.2,45.5 -24.7,11.1 -51.5,18 -80.8,20.9 -29.4,2.6 -62.6,4.3 -100,4.3 h -184.7 v -1197.3 c 0,-39.2 5.5,-75.3 16.2,-108.5 10.6,-33.2 23.4,-62.1 38.3,-86.8 14.5,-24.2 27.6,-44.3 39.6,-60 11.5,-15.7 19.5,-24.2 23.3,-26.4 h -516.5 -35.3 c 2.1,0 8.5,7.3 19.2,22.2 10.6,14.4 22.5,34 35.3,58.7 12.8,24.2 23.8,53.6 33.6,88 9.8,34.1 14.9,72 14.9,112.8 v 1197.3 h -188.1 c -37,0 -70.2,-2.1 -99.5,-6 -29.4,-3.8 -57,-11.5 -82.1,-23.4 -25.6,-11.9 -50.2,-28.5 -73.6,-49.8 -23.4,-21.7 -46.9,-50.2 -70.2,-85.1 l 8.5,401.7 z m 2383.1,-1032.6 v -402.1 c 0,-39.2 4.7,-75.3 14.5,-108.5 9.8,-33.2 21.7,-62.1 35.3,-86.8 13.6,-24.3 25.9,-44.3 36.6,-60 10.6,-15.8 18.3,-24.3 22.1,-26.4 h -542.9 c 2.1,0 8.5,7.3 19.2,22.1 10.6,14.5 22.1,34.5 33.6,60 11.9,25.6 22.5,55.3 32.3,89.4 9.8,34.4 14.9,71 14.9,110.2 v 399.1 l -466.7,798.2 v -3 c -33.2,52.7 -66.4,101.7 -99.6,146.8 -33.6,45.1 -60,76.1 -79.5,93.6 h 584.1 c -3.8,-9.4 -11.1,-25.1 -20.8,-46.8 -9.8,-21.3 -14.5,-43 -14.5,-64.7 0,-31.1 9.8,-66.4 29.4,-105.5 l -3,3 305.1,-507.6 270.1,504.6 h -3 c 17.5,41.3 26.4,75.3 26.4,103 0,21.2 -5.9,44.6 -17.8,70.1 -11.5,25.6 -19.2,40 -23.4,43.9 h 490.1 c -6,-3.9 -15.7,-13.2 -29.4,-27.7 -13.6,-14.9 -29.8,-32.8 -48.5,-54.4 -18.3,-21.3 -38.3,-46 -60,-73.2 -21.7,-27.2 -41.3,-55.7 -58.7,-85.1 v 3 l -445.9,-795.2 z M 8821.57,12147.3 c 0,-111.9 25.95,-200.8 77.86,-267.2 51.89,-66.3 130.62,-100 236.14,-100 56.57,0 119.14,11.9 187.64,35.4 68.47,23.4 126.36,51.8 173.15,85.1 v 1100.2 c 0,41.3 -4.24,78.3 -13.18,111.5 -8.96,33.6 -17.88,62.1 -27.66,86.8 -9.79,24.2 -19.59,43.8 -29.35,58.7 -9.81,14.5 -15.77,23 -17.91,24.7 h 507.6 c -1.7,-1.7 -7.24,-9.4 -16.18,-23.4 -8.5,-13.6 -18.29,-32.8 -29.35,-57 -10.64,-24.7 -20,-54 -27.66,-88.1 -7.66,-34.5 -11.93,-71.9 -11.93,-113.2 v -1153 c 0,-39.2 4.69,-75.3 13.19,-108.5 8.96,-33.2 19.16,-62.1 31.09,-86.8 11.48,-24.3 22.54,-44.3 32.34,-60 9.78,-15.8 16.6,-24.3 20.43,-26.4 h -402.08 l -23.41,134.9 c -31.49,-25.1 -65.93,-47.2 -104.24,-65.9 -38.31,-18.8 -76.57,-34.1 -115.74,-46.9 -39.15,-12.7 -77.42,-22.5 -114.44,-29.3 -37.45,-6.8 -70.62,-10.2 -100,-10.2 -109.35,0 -201.24,14.4 -275.68,43.8 -74.47,29.4 -134.04,70.6 -179.13,123.4 -44.69,52.7 -77.02,114.9 -96.58,186.4 -19.58,71 -29.37,150.2 -29.37,236.1 v 862.4 c 0,41.3 -3.84,78.3 -11.9,111.5 -7.68,33.6 -17.04,62.1 -27.66,86.8 -11.09,24.3 -21.29,43.8 -31.09,58.7 -9.78,14.5 -15.74,23 -17.42,24.7 h 530.96 c -3.82,-1.7 -11.46,-9.4 -23.39,-23.4 -11.92,-13.6 -23.84,-33.2 -36.58,-58.7 -12.79,-25.1 -24.27,-54.5 -34.07,-88.1 -9.78,-33.2 -14.46,-70.2 -14.46,-111.5 v -853.5 h 0.06"
         style="fill:#ffffff;fill-opacity:1;fill-rule:evenodd;stroke:none"
         id="path24" />
      <path
         d="m 11446.5,10048.7 h 529.9 l 2.3,-154.5 c -10.1,14 -19.5,24.8 -28.5,32.5 -8.9,7.8 -18.2,13.8 -27.8,18 -9.7,4.4 -20.4,7.1 -32,8.3 -11.6,1 -24.8,1.7 -39.6,1.7 h -73.1 v -474.1 c 0,-15.5 2.2,-29.9 6.4,-43 4.2,-13.1 9.3,-24.6 15.2,-34.4 5.7,-9.6 10.9,-17.5 15.6,-23.7 4.6,-6.3 7.8,-9.6 9.3,-10.5 h -204.5 -14 c 0.8,0 3.4,2.9 7.6,8.8 4.2,5.7 8.9,13.5 13.9,23.2 5.1,9.6 9.5,21.3 13.4,34.9 3.8,13.5 5.9,28.5 5.9,44.7 v 474.1 h -74.5 c -14.7,0 -27.8,-0.9 -39.4,-2.4 -11.7,-1.5 -22.6,-4.5 -32.5,-9.3 -10.2,-4.7 -19.9,-11.2 -29.2,-19.7 -9.3,-8.6 -18.5,-19.9 -27.8,-33.7 l 3.4,159.1 z m 892.7,-381.1 h 155.7 l -79.1,213.8 z m 190.6,-89.5 h -222.1 l -34.9,-99.9 c -3,-8.4 -5.2,-16.3 -6.2,-23.7 -1.2,-7.5 -1.9,-14.2 -1.9,-20.5 0,-17 4.1,-31 12.3,-41.7 8.1,-10.8 14.9,-18.6 20.2,-23.3 h -203.3 c 3.9,2.4 12.6,14 26.3,34.9 13.4,20.9 26.1,47.7 37.7,80.2 l 164.9,455.4 c 2.4,6.2 4.4,13.8 6.5,22.7 1.8,9 2.5,18.1 1.6,27.3 -0.6,9.3 -3.3,18.4 -8.1,27.3 -4.7,9 -12.4,16.6 -23.2,22.6 h 196.4 c 9.3,-18.5 19.1,-40.4 29.5,-65.5 10.7,-25.3 23.8,-58.5 39.6,-99.9 15.9,-41.5 35.6,-93.7 59.3,-156.4 23.6,-62.6 52.7,-140.6 87.6,-233.5 13.4,-31 26.3,-57.3 39,-79 12.8,-21.7 21.2,-33.7 25.1,-36.1 H 12553 c 3.9,3.9 8.3,11.3 13.3,22.1 5.1,10.8 7.6,24.1 7.6,39.6 0,6.1 -0.7,13.2 -1.9,20.9 -1.1,7.8 -3.7,16.7 -7.5,26.6 l -34.7,100 z m 366.1,470.6 h 529.9 l 2.4,-154.5 c -10.1,14 -19.6,24.8 -28.5,32.5 -8.9,7.8 -18.2,13.8 -27.8,18 -9.8,4.4 -20.4,7.1 -32,8.3 -11.6,1 -24.8,1.7 -39.6,1.7 h -73.1 v -474.1 c 0,-15.5 2.2,-29.9 6.4,-43 4.2,-13.1 9.2,-24.6 15.2,-34.4 5.7,-9.6 10.9,-17.5 15.6,-23.7 4.6,-6.3 7.8,-9.6 9.3,-10.5 h -204.6 -13.9 c 0.8,0 3.3,2.9 7.5,8.8 4.3,5.7 9,13.5 14,23.2 5.1,9.6 9.5,21.3 13.3,34.9 3.9,13.5 5.9,28.5 5.9,44.7 v 474.1 h -74.4 c -14.7,0 -27.8,-0.9 -39.5,-2.4 -11.6,-1.5 -22.5,-4.5 -32.5,-9.3 -10.1,-4.7 -19.9,-11.2 -29.1,-19.7 -9.3,-8.6 -18.6,-19.9 -27.8,-33.7 l 3.3,159.1 z M 14043.2,9369 h -426.4 c 0.7,0 3.2,2.9 7.4,8.8 4.4,5.7 9,13.6 14,23.7 5.1,10.2 9.8,21.9 14,35.4 4.2,13.7 6.4,28.2 6.4,43.7 v 456.6 c 0,16.3 -2,31 -5.9,44.1 -3.9,13.3 -8.2,25 -13.3,34.9 -5.1,10.1 -9.6,18 -14,23.9 -4.2,5.8 -6.8,8.6 -7.6,8.6 h 16.4 410.1 l 5.9,-132.4 1.1,-18.5 c -9.2,16.1 -25.4,29.8 -48.2,40.6 -22.9,10.9 -49.8,16.3 -80.9,16.3 H 13791 v -190.5 h 133.6 c 22.4,0 43.5,4 62.9,12.1 19.3,8.1 31.6,15.3 37,21.6 v -155.7 c -0.6,0.7 -4.2,2.9 -10.4,6.4 -6.3,3.4 -14,6.9 -23.3,10.5 -9.2,3.3 -19.7,6.7 -31.3,9.7 -11.6,3.2 -23.3,4.7 -34.9,4.7 H 13791 v -210.2 h 131.2 c 30.4,0 56.8,6.1 79.7,18.5 22.8,12.5 39.3,26.3 49.4,41.8 l -1.2,-17.3 -6.9,-137.2 z m 544,335.8 c 0,-37.2 5.9,-71.4 17.5,-102.8 11.6,-31.3 27.3,-58.2 47,-80.8 19.7,-22.4 42.5,-39.8 68.1,-52.2 25.4,-12.4 52.2,-18.6 80,-18.6 16.4,0 33.5,1.7 51.7,5.3 18.2,3.3 36.1,8.5 53.6,15.6 17.3,6.9 34,16.2 49.9,27.8 15.8,11.6 29.6,25.6 41.3,42 v -131.4 c -25.6,-15.6 -57.1,-27.3 -94.7,-35.4 -37.6,-8.1 -77.4,-12.2 -119.1,-12.2 -45.7,0 -89.5,8 -131.3,23.8 -42,15.8 -78.8,38.7 -111,68.6 -32.2,29.8 -58,65.8 -77.4,107.9 -19.3,42.3 -28.9,89.7 -28.9,142.4 0,55.8 10.1,105.7 30.1,149.3 20.2,43.8 46.9,80.9 80.2,111.1 33.4,30.1 70.9,53.2 112.7,69 41.8,16.1 84.9,24 129.1,24 48,0 88.6,-4.4 122,-12.9 33.2,-8.6 60,-18.2 80.2,-29.1 v -139.3 c -18.7,30.1 -44.7,52.8 -77.9,67.8 -33.3,15.2 -70.9,22.8 -112.7,22.8 -29.5,0 -56.7,-6.3 -82,-18.7 -25.1,-12.3 -47.4,-30 -66.7,-52.7 -19.4,-23 -34.6,-50.4 -45.4,-82.6 -10.7,-32.2 -16.3,-68.4 -16.3,-108.7 z m 746.3,0 c 0,-37.2 4.9,-71.3 14.5,-102.3 9.6,-31 22.9,-57.4 39.4,-79.5 16.7,-22 36.8,-39.1 60,-51.2 23.3,-11.9 48.7,-18 76.7,-18 27.7,0 53.4,6.1 76.6,18 23.3,12.2 43.2,29.2 59.8,51.2 16.7,22.1 29.5,48.6 38.4,79.5 9,31 13.3,65.1 13.3,102.3 0,39.6 -4.3,75.3 -13.3,107.5 -8.9,32.2 -21.7,59.5 -38.4,81.9 -16.7,22.6 -36.6,39.7 -59.8,51.7 -23.2,12 -48.9,18 -76.6,18 -28,0 -53.4,-6 -76.7,-18 -23.3,-12 -43.3,-29.2 -60,-51.7 -16.5,-22.4 -29.8,-49.7 -39.4,-81.9 -9.6,-32.2 -14.5,-67.9 -14.5,-107.5 z m -146.4,0 c 0,55.8 8.9,105.6 26.6,149.3 17.9,43.8 42.3,80.9 73.3,111 31,30.2 66.5,53.3 106.8,69.1 40.5,16 83.4,23.9 129.1,23.9 46.5,0 90.3,-7.9 131.2,-23.9 41.2,-15.8 77,-38.9 107.5,-69.1 30.7,-30.1 54.6,-67.2 72.1,-111 17.4,-43.7 26.1,-93.5 26.1,-149.3 0,-52.7 -8.7,-100.1 -26.1,-142.4 -17.5,-42.1 -41.4,-78.1 -72.1,-107.9 -30.5,-29.9 -66.3,-52.8 -107.5,-68.6 -40.9,-15.9 -84.7,-23.8 -131.2,-23.8 -45.7,0 -88.6,7.9 -129.1,23.8 -40.3,15.8 -75.8,38.7 -106.8,68.6 -31,29.8 -55.4,65.8 -73.3,107.9 -17.7,42.3 -26.6,89.7 -26.6,142.4 z M 16483,9369 h -427.7 c 0.7,0 3.2,2.9 7.5,8.8 4.4,5.7 9.3,13.6 14.6,23.7 5.4,10.2 10.3,21.9 14.5,35.4 4.2,13.7 6.4,28.2 6.4,43.7 v 456.6 c 0,16.3 -1.5,31 -4.7,44.1 -3,13.3 -6.7,24.6 -11,34.4 -4.3,9.6 -8.4,17.3 -12.2,23.3 -3.9,5.7 -6.1,9.1 -7,9.7 h 210.3 c -1.5,-0.6 -4.5,-3.7 -9.3,-9.2 -4.7,-5.4 -9.4,-13.2 -14.5,-23.3 -5,-9.9 -9.4,-21.6 -13.3,-34.9 -3.8,-13.1 -5.9,-27.8 -5.9,-44.1 v -474 h 130.1 c 31,0 57.8,4.4 80.2,13.4 22.6,8.9 39.3,25.7 50,50.5 l -1.1,-16.3 -6.9,-141.7 z m 623.1,0 h -427.6 c 0.7,0 3.2,2.9 7.4,8.8 4.4,5.7 9.3,13.6 14.7,23.7 5.4,10.2 10.3,21.9 14.5,35.4 4.2,13.7 6.4,28.2 6.4,43.7 v 456.6 c 0,16.3 -1.5,31 -4.7,44.1 -3.1,13.3 -6.8,24.6 -11,34.4 -4.4,9.6 -8.4,17.3 -12.3,23.3 -3.9,5.7 -6.1,9.1 -6.9,9.7 h 210.2 c -1.5,-0.6 -4.5,-3.7 -9.2,-9.2 -4.7,-5.4 -9.5,-13.2 -14.5,-23.3 -5.1,-9.9 -9.5,-21.6 -13.3,-34.9 -3.9,-13.1 -5.9,-27.8 -5.9,-44.1 v -474 h 130 c 31.1,0 57.8,4.4 80.2,13.4 22.6,8.9 39.3,25.7 50.1,50.5 l -1.2,-16.3 -6.9,-141.7 z m 623.2,0 h -426.5 c 0.7,0 3.2,2.9 7.5,8.8 4.3,5.7 8.9,13.6 13.9,23.7 5.1,10.2 9.8,21.9 14,35.4 4.2,13.7 6.4,28.2 6.4,43.7 v 456.6 c 0,16.3 -2,31 -5.9,44.1 -3.9,13.3 -8.2,25 -13.3,34.9 -5,10.1 -9.6,18 -14,23.9 -4.2,5.8 -6.7,8.6 -7.6,8.6 h 16.4 410.1 l 5.9,-132.4 1.2,-18.5 c -9.3,16.1 -25.5,29.8 -48.3,40.6 -22.9,10.9 -49.8,16.3 -80.8,16.3 H 17477 v -190.5 h 133.6 c 22.5,0 43.5,4 62.9,12.1 19.4,8.1 31.7,15.3 37,21.6 v -155.7 c -0.6,0.7 -4.2,2.9 -10.4,6.4 -6.2,3.4 -14,6.9 -23.2,10.5 -9.3,3.3 -19.8,6.7 -31.4,9.7 -11.6,3.2 -23.3,4.7 -34.9,4.7 H 17477 v -210.2 h 131.3 c 30.3,0 56.7,6.1 79.7,18.5 22.7,12.5 39.2,26.3 49.3,41.8 l -1.2,-17.3 -6.9,-137.2 z m 804.2,65.1 c -32.5,-24.8 -72.1,-43 -118.6,-54.6 -46.4,-11.7 -93.3,-17.4 -140.5,-17.4 -45.7,0 -89.5,7.9 -131.3,23.8 -42,15.8 -78.7,38.7 -110.5,68.6 -31.7,29.8 -57.3,65.8 -76.7,107.9 -19.3,42.3 -28.9,89.7 -28.9,142.4 0,55.8 10.7,105.6 32.5,149.3 21.7,43.8 50.4,80.9 85.9,111 35.7,30.2 76,53.3 121,69.1 44.8,16 90.1,23.9 135.8,23.9 47.3,0 87.7,-4.4 121.4,-12.8 33.8,-8.6 60.7,-18.2 80.7,-29.1 v -160.3 c -21.5,34.1 -48.7,61.2 -81.2,81.2 -32.5,20.3 -68.8,30.4 -109.3,30.4 -32.5,0 -62.8,-6.3 -91.2,-18.7 -28.3,-12.3 -53,-30 -74.2,-52.7 -21.4,-23 -38.3,-50.4 -50.6,-82.6 -12.5,-32.2 -18.7,-68.4 -18.7,-108.7 0,-37.2 5.7,-71.4 16.9,-102.7 11.2,-31.4 26.6,-58.3 46,-80.9 19.3,-22.4 41.7,-39.8 67.3,-52.2 25.5,-12.3 52.6,-18.6 81.2,-18.6 18.8,0 37.5,1.9 56.5,5.8 19,3.8 37.4,10.1 55.2,18.7 v 134.8 c 0,28.6 -5,51 -15.1,67.4 -10.1,16.1 -18.2,27.1 -24.5,32.5 l 209.1,-1.2 c -4.5,-3.9 -12.1,-14 -22.6,-30.2 -10.4,-16.3 -15.6,-39.2 -15.6,-68.5 v -175.6 z m 652.1,-65.1 h -426.4 c 0.7,0 3.2,2.9 7.4,8.8 4.4,5.7 9,13.6 14,23.7 5.1,10.2 9.8,21.9 14,35.4 4.2,13.7 6.4,28.2 6.4,43.7 v 456.6 c 0,16.3 -2,31 -5.9,44.1 -3.9,13.3 -8.3,25 -13.3,34.9 -5.1,10.1 -9.6,18 -14,23.9 -4.2,5.8 -6.7,8.6 -7.6,8.6 h 16.4 410.1 l 5.8,-132.4 1.2,-18.5 c -9.2,16.1 -25.4,29.8 -48.2,40.6 -22.9,10.9 -49.8,16.3 -80.8,16.3 h -131.3 v -190.5 h 133.6 c 22.4,0 43.5,4 62.9,12.1 19.3,8.1 31.7,15.3 37,21.6 v -155.7 c -0.6,0.7 -4.2,2.9 -10.4,6.4 -6.2,3.4 -14,6.9 -23.3,10.5 -9.2,3.3 -19.7,6.7 -31.3,9.7 -11.6,3.2 -23.3,4.7 -34.9,4.7 h -133.6 v -210.2 h 131.2 c 30.4,0 56.8,6.1 79.7,18.5 22.8,12.5 39.3,26.3 49.4,41.8 l -1.2,-17.3 -6.9,-137.2 z m -8069.3,168.5 c 0,14.7 -3.2,27.6 -9.4,38.9 -6.1,11.3 -14,21.4 -23.8,30.2 -9.6,8.9 -21,17.2 -34.2,24.4 -13.3,7.4 -26.8,14.5 -40.8,21.6 -23.2,10.8 -46.6,23.4 -70.2,37.7 -23.6,14.4 -45,30.9 -63.9,49.4 -19,18.5 -34.5,39.1 -46.5,61.7 -11.9,22.4 -18,47.5 -18,75.5 0,26.2 5.6,50.5 16.8,72.6 11.3,22 27,41.2 47.1,57.4 20.2,16.3 43.8,28.8 70.9,37.7 27.1,9 56.9,13.5 89.5,13.5 45,0 82.5,-4.4 112.7,-12.8 30.1,-8.6 54.5,-18.2 73.1,-29.1 v -112.8 -20.8 c -4.6,9.2 -12.5,19 -23.8,29.1 -11.3,9.9 -24.2,19 -38.9,27.3 -14.7,8.1 -30.7,14.9 -47.7,20.2 -17,5.6 -33.2,8.3 -48.7,8.3 -38.1,0 -65.9,-7.6 -83.7,-22.7 -17.9,-15.1 -26.8,-32.4 -26.8,-51.8 0,-11.6 3.5,-22.5 10.4,-33 7.1,-10.4 16.2,-20.4 27.5,-29.7 11.1,-9.2 24.1,-18.3 38.9,-27.3 14.7,-8.9 29.8,-17.2 45.4,-24.9 25.4,-14 49.5,-28.3 71.9,-43.1 22.4,-14.7 42.1,-31.2 58.6,-49.4 16.7,-18.2 29.8,-38.1 39.6,-59.8 9.6,-21.8 14.5,-46 14.5,-73.1 0,-28.7 -6.2,-55.1 -18.5,-79 -12.5,-24.1 -29.7,-44.9 -51.7,-62.2 -22.1,-17.5 -48.1,-31 -77.9,-40.8 -29.8,-9.6 -62.5,-14.5 -98.2,-14.5 -46.5,0 -85.8,4.2 -117.9,12.8 -32.2,8.6 -57.5,17.9 -76.2,28 l -10.4,125.4 v 14 c 5.4,-10.2 15.3,-20.5 29.6,-30.9 14.3,-10.4 30.2,-20.1 47.7,-29 17.4,-8.9 35.6,-16 54.6,-21.5 19,-5.4 36.2,-8.1 51.7,-8.1 20.1,0 38.1,2.7 54.1,8.1 15.8,5.5 29.1,12.4 40.1,21 10.8,8.4 18.9,18.2 24.2,29 5.6,10.8 8.3,21.7 8.3,32.5 v 0"
         style="fill:#ffffff;fill-opacity:1;fill-rule:evenodd;stroke:none"
         id="path26" />
      <path
         d="m 14999.9,8532.1 140.2,-434.3 456.3,0.9 -369.7,-267.6 141.9,-433.7 -368.7,268.9 -368.7,-268.9 141.8,433.7 -369.7,267.6 456.4,-0.9 140.2,434.3"
         style="fill:#ffffff;fill-opacity:1;fill-rule:evenodd;stroke:none"
         id="path28" />
      <path
         d="m 11932.3,9043.4 h 6135.1 v -69.3 h -6135.1 v 69.3"
         style="fill:#ffffff;fill-opacity:1;fill-rule:evenodd;stroke:none"
         id="path30" />
      <path
         d="m 11305.9,18810.7 c -7.4,261.8 194.3,448 446.1,547.4 12,-279.6 -124.6,-569 -446.1,-547.4 z m 18.4,-578.2 c -29.3,283.9 174.9,502.6 440.6,631 35.5,-302.9 -89.5,-628.5 -440.6,-631 z m 81,-709.7 c -80.6,286.1 89.9,546.9 339.6,726.1 90.6,-304.5 20.4,-661 -339.6,-726.1 z m 170.2,-590.2 c -99.7,291.1 61.6,570.2 309.4,769.6 111,-309.4 58.8,-681.8 -309.4,-769.6 z m 221.9,-534 c -122.7,287.7 20.2,582.6 256.5,803.2 135.5,-305.5 110.2,-686.8 -256.5,-803.2 z m 327.3,-581.2 c -169.1,269.3 -72.7,588.3 129.6,847.6 184.8,-285.3 220.2,-672.2 -129.6,-847.6 z m 397.9,-552.1 c -205.1,261.4 -139.6,603.4 42.3,894.8 223.1,-276.2 302,-674.5 -42.3,-894.8 z m 460.8,-526.2 c -236.3,244.2 -206,599 -51.9,914.8 256.2,-257.3 378.8,-654.1 51.9,-914.8 z M 11289,19197 c 224.7,132.7 274.4,401.5 224.6,666.6 -242,-138.4 -413.5,-407.2 -224.6,-666.6 z m -151.5,-394.4 c 97.7,255.5 -37,508.5 -251,693.5 -108.2,-271.6 -73.4,-604.1 251,-693.5 z m -40.2,-640.1 c 57.3,292.6 -134.5,539.2 -398.8,697.9 -65.6,-311.8 33.8,-662.3 398.8,-697.9 z m 58.4,-728.4 c 36.2,308.4 -182.5,549.3 -469.6,693.2 -43.3,-329.1 87.7,-685.2 469.6,-693.2 z m 168.2,-686.5 c -27.6,320.1 -299.6,518.6 -620.5,604.5 24.7,-342.4 231.7,-676.1 620.5,-604.5 z m 267.3,-640.8 c -94.1,312.7 -406,453.7 -743.2,472.4 95.8,-335.7 371.3,-624.6 743.2,-472.4 z M 11914,15554 c -161.8,290.1 -502.4,362 -841.5,306.9 168.5,-312.5 505.2,-539.2 841.5,-306.9 z m 388,-537.6 c -206.9,278.7 -569.5,307 -913.2,204 216.8,-300.9 596.4,-490.1 913.2,-204 z m 1088.6,-1009.5 c -1530.9,1227.5 -2560.3,3147.1 -2133,5048.6 -225.3,-2088.2 831.6,-3823.1 2394.4,-5012.1 l -261.3,-36.5 z m 5303.2,4803.8 c 7.4,261.8 -194.3,448 -446.2,547.4 -11.9,-279.6 124.7,-569 446.2,-547.4 z m -18.4,-578.2 c 29.3,283.9 -174.9,502.5 -440.6,631 -35.6,-302.9 89.5,-628.6 440.6,-631 z m -81.1,-709.7 c 80.7,286.1 -89.9,546.9 -339.6,726.1 -90.5,-304.5 -20.3,-661 339.6,-726.1 z m -170.1,-590.2 c 99.7,291 -61.6,570.2 -309.4,769.6 -111,-309.5 -58.8,-681.8 309.4,-769.6 z m -221.9,-534 c 122.7,287.7 -20.2,582.6 -256.6,803.2 -135.5,-305.5 -110.2,-686.8 256.6,-803.2 z m -327.3,-581.3 c 169.1,269.4 72.6,588.4 -129.7,847.7 -184.7,-285.3 -220.1,-672.3 129.7,-847.7 z m -397.9,-552 c 205.1,261.4 139.6,603.4 -42.3,894.8 -223.1,-276.2 -302.1,-674.5 42.3,-894.8 z m -460.9,-526.2 c 236.3,244.2 206.1,599 52,914.8 -256.2,-257.3 -378.9,-654.1 -52,-914.8 z m 1694.4,4457.9 c -224.6,132.6 -274.3,401.5 -224.5,666.6 242,-138.4 413.5,-407.2 224.5,-666.6 z m 151.5,-394.5 c -97.6,255.5 37,508.6 251,693.5 108.3,-271.5 73.5,-604 -251,-693.5 z m 40.2,-640 c -57.2,292.6 134.6,539.2 398.9,697.8 65.5,-311.7 -33.8,-662.2 -398.9,-697.8 z m -58.3,-728.4 c -36.3,308.4 182.5,549.3 469.5,693.1 43.4,-329 -87.6,-685.1 -469.5,-693.1 z m -168.2,-686.5 c 27.6,320 299.6,518.6 620.5,604.5 -24.7,-342.4 -231.7,-676.1 -620.5,-604.5 z m -267.4,-640.8 c 94.1,312.7 406,453.7 743.3,472.3 -95.8,-335.6 -371.3,-624.5 -743.3,-472.3 z m -322.7,-552.8 c 161.8,290.1 502.4,362 841.4,306.9 -168.5,-312.5 -505.2,-539.3 -841.4,-306.9 z m -388.1,-537.6 c 207,278.6 569.6,306.9 913.3,204 -216.9,-300.9 -596.4,-490.2 -913.3,-204 z M 16609,14006.9 c 1530.9,1227.5 2560.4,3147.1 2133.1,5048.5 225.3,-2088.1 -831.7,-3823 -2394.5,-5012 l 261.4,-36.5 z m 665.9,544.1 c 259.3,242.2 629.4,204 956.2,37.2 -273.5,-262.8 -690.2,-383.5 -956.2,-37.2 z m -4550.1,0 c -259.3,242.2 -629.3,204 -956.2,37.2 273.5,-262.8 690.2,-383.5 956.2,-37.2"
         style="fill:#ffffff;fill-opacity:1;fill-rule:evenodd;stroke:none"
         id="path32" />
      <path
         d="m 19526,15115.7 c 17.9,0 38.1,3.7 60,11.3 22.2,7.7 40.4,21 54.9,40.1 -1.7,87.4 -12.7,154.5 -32.6,201.4 -19.8,46.8 -48.2,70.4 -85.1,70.4 -18,0 -34.5,-4.8 -49.4,-14.4 -14.9,-9.4 -27.2,-21.7 -37.2,-37 -9.8,-15.3 -17.5,-33 -23,-52.8 -5.3,-19.8 -8,-39.6 -8,-59.6 0,-48.6 9.4,-87.4 28.4,-116.3 18.8,-28.8 49.4,-43.1 92,-43.1 z m 453,305.5 196.3,113.5 h 81 c -4.5,-3.5 -9.2,-16.2 -14.1,-38.4 -4.9,-22.1 -7.5,-52.6 -7.5,-91.4 v -531.4 c 0,-18.1 2.6,-34.8 7.5,-50 4.9,-15.3 10.8,-28.7 17.6,-40 6.7,-11.2 12.8,-20.5 18.3,-27.7 5.3,-7.3 9,-11.2 10.8,-12.2 h -266.5 l 21.7,20.2 c 0.8,0 3.2,2.6 6.7,7.5 3.5,5.1 7.6,11.9 12.2,21 4.5,9 8.6,20.4 12.1,33.9 3.8,13.5 5.5,29.2 5.5,47.3 v 496.3 c -3.7,0 -8.4,-0.8 -14.3,-2.7 -5.9,-1.8 -13.1,-3.9 -22.2,-6.7 l -65.1,-17.6 v 78.4 z m -9505,-305.5 c 17.9,0 38.1,3.7 60,11.3 22.2,7.7 40.5,21 54.9,40.1 -1.7,87.4 -12.7,154.5 -32.5,201.4 -19.9,46.8 -48.3,70.4 -85.1,70.4 -18.1,0 -34.6,-4.8 -49.5,-14.4 -14.9,-9.4 -27.2,-21.7 -37.2,-37 -9.8,-15.3 -17.5,-33 -23,-52.8 -5.3,-19.8 -8,-39.6 -8,-59.6 0,-48.6 9.4,-87.4 28.4,-116.3 18.8,-28.8 49.4,-43.1 92,-43.1 z m -43.3,-273.4 c 18,0 35.9,4.9 53.3,14.3 17.7,9.5 33.7,23 48.1,40.6 14.5,17.5 26.6,38.3 36.4,62.2 10.1,23.9 16.3,50.8 19.1,80.4 -18.1,-9.8 -39.5,-18.1 -64.3,-24.3 -24.7,-6.3 -50.2,-9.5 -76.3,-9.5 -47.9,0 -88.3,7.9 -121.2,23.8 -32.8,15.7 -59.6,36.3 -80.4,61.4 -20.8,25.2 -35.9,53.3 -45.3,83.9 -9.4,30.6 -14.2,60.4 -14.2,89.2 0,37.9 7.7,73.7 23,107.5 15.3,33.9 35.9,63.7 61.6,89.4 25.7,25.7 55.7,46.1 89.8,61.4 34.3,15.5 70,23.1 106.9,23.1 46,0 87.2,-9 123.7,-27.1 36.5,-18 67.5,-43.5 92.8,-76.4 25.1,-33 44.5,-72.2 58,-117.7 13.5,-45.5 20.4,-95.7 20.4,-150.8 0,-63.9 -8.6,-122.8 -25.9,-176.5 -17,-53.5 -40.8,-99.8 -71,-138.6 -30.2,-38.7 -65.5,-68.9 -106,-90.7 -40.7,-21.5 -84,-32.3 -129.9,-32.3 -63.1,0 -123.2,10.8 -179.8,32.3 l -1.4,161 c 27.9,-32.5 57.5,-55.1 88.7,-67.6 30.9,-12.6 62.3,-19 93.9,-19 z m -719.52,578.9 196.3,113.5 h 81 c -4.5,-3.5 -9.22,-16.2 -14.12,-38.4 -4.88,-22.1 -7.45,-52.6 -7.45,-91.4 v -531.4 c 0,-18.1 2.57,-34.8 7.45,-50 4.9,-15.3 10.78,-28.7 17.66,-40 6.66,-11.2 12.78,-20.5 18.18,-27.7 5.3,-7.3 9.1,-11.2 10.8,-12.2 h -266.45 l 21.75,20.2 c 0.8,0 3.14,2.6 6.68,7.5 3.54,5.1 7.64,11.9 12.16,21 4.5,9 8.62,20.4 12.16,33.9 3.74,13.5 5.49,29.2 5.49,47.3 v 496.3 c -3.73,0 -8.43,-0.8 -14.31,-2.7 -5.88,-1.8 -13.16,-3.9 -22.18,-6.7 l -65.1,-17.6 v 78.4 z m 9771.52,-578.9 c 18,0 35.8,4.9 53.3,14.3 17.7,9.5 33.7,23 48,40.6 14.6,17.5 26.7,38.3 36.5,62.2 10,23.9 16.3,50.8 19.1,80.4 -18.1,-9.8 -39.5,-18.1 -64.3,-24.3 -24.8,-6.3 -50.3,-9.5 -76.3,-9.5 -47.9,0 -88.3,7.9 -121.2,23.8 -32.8,15.7 -59.7,36.3 -80.4,61.4 -20.8,25.2 -35.9,53.3 -45.3,83.9 -9.5,30.6 -14.2,60.4 -14.2,89.2 0,37.9 7.7,73.7 23,107.5 15.3,33.9 35.9,63.7 61.6,89.4 25.6,25.7 55.6,46.1 89.8,61.4 34.3,15.5 70,23.1 106.8,23.1 46.1,0 87.3,-9 123.8,-27.1 36.5,-18 67.5,-43.5 92.7,-76.4 25.2,-33 44.6,-72.2 58.1,-117.7 13.5,-45.5 20.4,-95.7 20.4,-150.8 0,-63.9 -8.7,-122.8 -25.9,-176.5 -17.1,-53.5 -40.8,-99.8 -71,-138.6 -30.2,-38.7 -65.5,-68.9 -106.1,-90.7 -40.6,-21.5 -83.9,-32.3 -129.8,-32.3 -63.2,0 -123.2,10.8 -179.8,32.3 l -1.4,161 c 27.8,-32.5 57.5,-55.1 88.6,-67.6 31,-12.6 62.4,-19 94,-19 v 0"
         style="fill:#ffffff;fill-opacity:1;fill-rule:evenodd;stroke:none"
         id="path34" />
    </g>
  </g>
</svg>
