<!DOCTYPE svg PUBLIC "-//W3C//DTD SVG 1.1//EN" "http://www.w3.org/Graphics/SVG/1.1/DTD/svg11.dtd">

<!-- Uploaded to: SVG Repo, www.svgrepo.com, Transformed by: SVG Repo Mixer Tools -->
<svg fill="#FFFFFF" height="800px" width="800px" version="1.1" id="Layer_1" xmlns="http://www.w3.org/2000/svg" xmlns:xlink="http://www.w3.org/1999/xlink" viewBox="0 0 481.882 481.882" xml:space="preserve" stroke="#555555">

<g id="SVGRepo_bgCarrier" stroke-width="0"/>

<g id="SVGRepo_tracerCarrier" stroke-linecap="round" stroke-linejoin="round"/>

<g id="SVGRepo_iconCarrier"> <g> <g> <path d="M185.28,280.26l-34.641,34.642l22.281,7.019c2.502,0.792,4.455,2.745,5.247,5.247l7.019,22.281l34.641-34.641 L185.28,280.26z"/> </g> </g> <g> <g> <path d="M74.501,2.305C72.963,0.769,70.446,0,67.238,0C64.14,0,60.4,0.721,56.282,2.156C45.843,5.788,34.017,13.701,23.845,23.881 C1.798,45.927-3.66,68.608,2.269,74.537c5.93,5.921,28.61,0.471,50.656-21.576C74.971,30.916,80.429,8.235,74.501,2.305z"/> </g> </g> <g> <g> <path d="M91.642,19.447c-3.152,13.988-12.579,30.09-27.36,44.872c-14.803,14.803-30.909,24.173-44.914,27.31l166.717,166.717 c32.017-23.731,48.542-40.256,72.228-72.227L91.642,19.447z"/> </g> </g> <g> <g> <path d="M269.801,197.606c-23.59,31.62-40.561,48.6-72.235,72.221l34.892,34.892c30.773-23.385,48.998-41.604,72.236-72.212 L269.801,197.606z"/> </g> </g> <g> <g> <path d="M480.073,407.878L316.121,243.927c-23.088,30.184-41.91,49.003-72.239,72.217L407.85,480.11 c1.976,1.976,5.545,2.314,10.626,0.941c22.124-5.921,56.609-40.406,62.538-62.53C482.379,413.447,482.057,409.863,480.073,407.878 z"/> </g> </g> </g>

</svg>